# xmcd CD database file
#
# Track frame offsets:
#	150
#	22046
#	43609
#	65430
#
# Disc length: 1154 seconds
#
# Revision: 0
# Processed by: cddbd v1.5.1PL2 Copyright (c) Steve Scherf et al.
# Submitted via: CDex 1.51
#
DISCID=2f048004
DTITLE=ALI PROJECT - 阿修羅姫
DYEAR=2005
DGENRE=Gothic Rock
TTITLE0=阿修羅姫
TTITLE1=君がため、惜しからざりし命さへ
TTITLE2=阿修羅姫 (off vocal)
TTITLE3=君がため、惜しからざりし命さへ (off vocal)
EXTD=YEAR: 2005
EXTT0=
EXTT1=
EXTT2=
EXTT3=
PLAYORDER=
